<?xml version="1.0" standalone="no"?>
<svg version="1.0" xmlns="http://www.w3.org/2000/svg"
 width="600.000000pt" height="600.000000pt" viewBox="0 0 600.000000 600.000000"
 preserveAspectRatio="xMidYMid meet">

<g transform="translate(0.000000,600.000000) scale(0.100000,-0.100000)"
fill="#FFFFFF" stroke="none">
<path d="M3025 5389 c-38 -5 -122 -16 -185 -24 -288 -36 -432 -79 -724 -214
-332 -155 -645 -427 -871 -757 -166 -242 -290 -549 -350 -864 -100 -529 28
-1120 348 -1600 241 -361 650 -693 1047 -850 116 -46 307 -110 330 -110 27 0
185 -42 225 -60 93 -41 119 -45 270 -45 125 0 154 3 175 17 14 9 43 21 65 26
22 5 74 19 115 30 41 11 98 24 125 28 28 4 102 24 166 45 652 212 1161 656
1426 1243 56 124 85 208 122 351 55 208 66 308 66 565 -1 298 -18 401 -122
725 -24 75 -38 109 -106 245 -218 440 -595 816 -1012 1010 -223 104 -202 96
-365 146 -89 27 -94 29 -175 43 -137 25 -191 32 -320 41 -77 5 -149 11 -160
13 -11 3 -51 0 -90 -4z m159 -258 c14 -15 15 -24 6 -40 -19 -36 -80 -22 -80
19 0 39 46 52 74 21z m-320 -13 c18 -25 21 -74 6 -83 -5 -3 -10 -36 -10 -73
l0 -67 91 -115 91 -115 123 -310 c111 -282 129 -319 195 -415 40 -57 76 -116
82 -129 11 -31 9 -156 -4 -191 -5 -14 -40 -56 -77 -95 -65 -68 -68 -73 -81
-145 -14 -75 -14 -75 -21 -35 -4 22 -8 60 -8 84 -1 41 4 50 69 122 l70 77 0
89 c0 100 0 99 -112 244 -48 64 -71 110 -162 335 -58 143 -108 280 -112 303
-7 44 -24 72 -130 210 -55 71 -62 86 -68 140 -5 46 -13 67 -32 86 -44 44 -20
105 41 105 24 0 39 -7 49 -22z m84 -4 c2 -12 -4 -24 -12 -27 -19 -7 -40 18
-32 39 8 22 40 13 44 -12z m86 -1 c0 -13 -1 -52 -2 -88 -2 -49 -6 -65 -16 -65
-12 0 -13 11 -9 53 4 41 2 56 -11 66 -17 14 -21 42 -9 55 16 15 48 1 47 -21z
m331 -23 c16 -18 20 -19 27 -5 11 18 34 19 94 4 33 -9 44 -16 44 -31 0 -10 13
-31 29 -46 23 -22 30 -40 38 -94 7 -53 7 -68 -3 -68 -24 0 -54 -50 -48 -79 5
-24 -1 -34 -45 -72 -28 -24 -59 -44 -68 -44 -10 0 -20 -10 -23 -24 -3 -13 -17
-33 -31 -43 -20 -15 -30 -17 -52 -9 -18 7 -36 7 -53 0 -15 -5 -27 -8 -28 -7
-31 71 -75 150 -106 189 -22 28 -40 55 -40 60 0 6 16 33 35 62 29 43 35 61 35
105 0 36 4 54 14 58 8 3 20 19 26 35 12 28 15 29 75 29 50 0 66 -4 80 -20z
m249 -9 c36 -40 -15 -91 -55 -55 -22 20 -25 44 -7 62 18 18 42 15 62 -7z
m-906 -25 c2 -17 17 -49 33 -72 16 -23 34 -65 40 -92 8 -38 28 -73 83 -144 64
-82 93 -128 82 -128 -8 0 -124 124 -164 175 -22 28 -45 70 -52 95 -7 25 -27
66 -46 93 -46 64 -46 112 1 105 14 -2 21 -12 23 -32z m377 4 c10 -11 29 -20
42 -20 21 0 23 -4 23 -57 -1 -53 -4 -62 -41 -102 l-40 -45 -24 30 -24 29 30
25 c27 23 29 27 15 45 -16 21 -22 115 -8 115 5 0 17 -9 27 -20z m-557 1 c8 -5
13 -21 11 -37 -2 -18 7 -45 22 -69 14 -22 65 -106 114 -187 l88 -147 28 15
c44 22 77 17 111 -17 29 -28 30 -33 25 -87 -6 -52 -2 -68 49 -197 31 -77 67
-162 81 -188 16 -32 30 -82 39 -145 13 -95 22 -112 57 -112 61 0 117 -68 117
-140 0 -84 -57 -140 -140 -140 -53 0 -93 23 -119 70 -25 45 -27 90 -5 131 8
17 14 32 12 33 -2 2 -36 24 -77 50 l-73 47 -25 -23 c-19 -18 -36 -23 -75 -23
-44 0 -53 4 -80 34 -26 30 -30 39 -25 78 l5 44 -85 69 c-91 74 -91 74 -111 61
-11 -6 -4 -30 31 -113 61 -142 145 -258 255 -351 57 -48 94 -89 106 -114 15
-34 21 -39 51 -39 23 0 43 -8 61 -24 22 -22 25 -31 21 -69 -4 -40 1 -54 51
-140 41 -72 55 -105 54 -131 -1 -19 1 -130 4 -246 l6 -212 29 55 c27 52 29 62
29 175 0 139 6 155 86 240 30 31 54 61 54 67 0 6 10 36 22 68 16 45 39 77 100
140 l80 81 18 106 c10 58 22 111 26 118 31 56 74 109 98 120 41 18 54 42 38
68 -11 18 -9 25 14 55 14 19 33 35 40 35 8 0 14 9 14 20 0 11 -7 20 -15 20 -8
0 -15 -8 -15 -18 0 -24 -58 -78 -92 -86 -32 -7 -48 -48 -30 -76 9 -14 4 -26
-21 -61 l-31 -43 -7 33 c-4 19 -16 45 -27 60 -12 14 -33 43 -48 64 l-27 37 24
57 c20 45 33 61 64 77 22 12 46 33 53 48 19 41 231 213 245 199 6 -6 31 -11
55 -11 37 0 50 6 78 34 28 28 34 42 34 75 0 49 -22 86 -61 107 -101 52 -210
-59 -154 -156 8 -14 14 -28 15 -32 0 -4 -46 -45 -102 -92 l-102 -84 -29 24
c-35 29 -47 30 -81 3 -30 -24 -35 -72 -11 -100 14 -15 14 -21 -7 -63 -12 -25
-24 -46 -27 -46 -4 0 -21 42 -40 93 -18 50 -36 97 -38 104 -5 12 189 180 225
194 12 5 22 16 22 25 0 22 61 103 78 104 6 0 12 3 13 8 1 4 2 23 4 42 2 19 25
91 53 159 43 108 54 125 80 136 16 7 34 21 40 30 9 16 13 16 66 -8 31 -14 56
-30 56 -36 0 -5 10 -11 22 -13 16 -2 24 -12 29 -35 10 -50 39 -80 69 -72 23 6
23 7 3 8 -25 1 -63 45 -63 72 0 26 27 49 57 49 55 0 83 -62 46 -102 -15 -17
-15 -18 0 -18 9 0 23 -13 32 -30 9 -18 23 -30 35 -30 11 0 29 -9 39 -19 20
-20 20 -20 26 0 22 67 125 52 125 -18 0 -60 -62 -82 -105 -38 -14 13 -25 20
-25 16 0 -4 9 -16 19 -25 19 -17 18 -19 -31 -97 -38 -60 -55 -79 -72 -79 -44
0 -70 -37 -54 -79 7 -19 0 -38 -33 -98 -22 -41 -38 -77 -36 -79 3 -3 23 29 46
71 27 49 48 75 59 75 10 0 28 7 41 16 20 14 22 22 17 54 -5 33 0 47 44 114 42
65 54 76 78 76 20 0 32 -8 45 -29 9 -16 17 -35 17 -42 0 -7 9 -23 21 -35 16
-18 19 -26 10 -42 -6 -11 -84 -90 -173 -177 -90 -86 -154 -152 -143 -146 11 5
102 89 203 186 101 97 189 174 195 172 7 -2 12 -24 12 -54 0 -27 5 -56 12 -64
10 -12 -5 -33 -83 -116 -68 -73 -99 -100 -112 -96 -22 5 -47 -21 -39 -41 10
-25 -218 -234 -305 -280 -159 -85 -157 -84 -238 -286 -42 -105 -73 -170 -112
-230 -13 -22 17 3 80 65 59 57 115 103 131 108 50 13 52 71 2 65 -20 -2 -27
-9 -29 -30 -2 -18 -20 -41 -53 -69 -27 -22 -49 -38 -49 -35 0 11 81 208 104
254 30 58 40 68 146 128 59 33 123 83 211 166 70 65 133 118 141 118 20 0 38
21 38 43 0 11 40 60 92 113 73 75 97 94 120 94 32 0 63 -41 74 -97 4 -21 13
-33 28 -37 13 -3 35 -25 51 -50 27 -43 28 -43 46 -25 24 24 40 24 73 -2 31
-24 34 -59 7 -83 -31 -28 -73 -17 -93 24 -13 25 -18 29 -18 15 0 -11 7 -29 15
-39 8 -10 12 -22 10 -27 -3 -4 4 -5 15 -2 16 4 24 -4 41 -41 11 -26 19 -61 17
-79 -2 -26 -10 -35 -45 -52 -23 -11 -45 -24 -49 -28 -10 -9 67 22 81 33 6 5
24 -4 43 -21 24 -22 36 -44 45 -86 8 -33 16 -52 21 -45 11 18 66 15 88 -5 10
-9 18 -27 18 -40 0 -28 -33 -63 -60 -63 -28 0 -60 35 -61 68 -2 23 -2 24 -6 5
-2 -13 -12 -23 -21 -24 -12 0 -11 -3 6 -9 12 -5 22 -16 22 -24 0 -7 11 -17 25
-20 20 -5 26 -15 36 -66 10 -52 14 -60 30 -55 19 6 59 -10 71 -29 4 -6 8 -26
8 -43 0 -25 -6 -36 -27 -47 -49 -24 -99 11 -91 64 3 23 2 27 -8 19 -14 -11 -4
-60 17 -85 14 -17 17 -14 -43 -48 -27 -16 -48 -30 -48 -33 0 -2 24 9 54 26 29
17 58 31 64 31 5 0 13 -28 17 -62 6 -56 10 -65 38 -83 63 -40 55 -118 -13
-132 -29 -5 -30 -7 -30 -64 0 -44 4 -59 14 -59 43 0 65 -89 27 -110 -11 -5
-30 -10 -44 -10 -13 0 -24 -6 -24 -12 0 -7 -3 -33 -7 -58 -6 -41 -4 -49 19
-70 48 -45 17 -127 -45 -118 -25 4 -29 0 -40 -35 -6 -21 -14 -45 -17 -53 -3
-8 1 -14 8 -14 38 0 65 -70 37 -98 -14 -14 -74 -16 -83 -2 -3 5 -20 -6 -37
-25 -41 -48 -69 -53 -101 -21 -40 40 -87 34 -112 -14 -14 -27 -17 -28 -172
-44 -87 -10 -167 -22 -178 -26 -23 -11 29 -7 213 16 l123 16 20 -26 c23 -30
78 -36 99 -11 29 35 42 2 14 -40 -8 -13 -29 -28 -46 -34 -39 -14 -125 -14
-133 -1 -11 18 -42 10 -59 -15 -15 -23 -15 -25 3 -35 27 -14 41 -13 60 5 9 8
35 17 58 21 40 6 42 5 49 -20 8 -35 -30 -77 -89 -100 -71 -26 -249 -57 -263
-45 -24 20 -60 -2 -55 -33 1 -11 -33 -19 -131 -27 -124 -10 -191 -45 -265
-135 -32 -40 -82 -84 -136 -121 -136 -91 -198 -145 -244 -215 -24 -36 -59 -85
-77 -110 -19 -25 -41 -61 -49 -80 -15 -35 -15 -35 -16 -7 -1 20 26 68 85 159
92 138 117 162 285 278 57 39 104 82 138 125 55 70 96 96 224 141 40 15 99 42
133 60 60 33 62 34 98 19 20 -9 47 -13 61 -9 31 8 75 51 75 75 0 10 8 23 18
28 10 7 12 11 4 11 -7 0 -28 16 -46 35 -44 47 -94 49 -137 6 -16 -16 -29 -39
-29 -50 0 -19 -6 -21 -64 -21 -35 0 -71 -3 -80 -6 -10 -4 -16 -1 -16 9 0 29
-40 67 -71 67 -28 0 -46 -13 -87 -64 -8 -10 -29 -16 -58 -16 l-44 0 47 46 c27
25 73 63 104 84 l56 39 29 -20 c55 -36 124 -14 145 46 17 47 71 64 117 38 41
-24 81 -9 104 37 17 33 22 35 120 57 73 15 126 21 183 18 l80 -4 -85 11 c-76
9 -96 7 -193 -14 -103 -24 -108 -24 -124 -6 -35 39 -113 10 -113 -42 0 -25 -5
-30 -37 -39 -24 -7 -39 -7 -41 -1 -2 5 -15 26 -28 46 -29 43 -34 37 76 93 66
33 86 39 165 44 84 5 91 4 118 -19 45 -38 91 -33 138 15 35 35 48 41 126 55
47 9 89 18 91 21 8 8 -6 6 -98 -10 -47 -8 -86 -15 -86 -15 -2 0 -14 61 -17 82
-1 9 -5 14 -9 12 -4 -3 -18 2 -30 10 -44 31 -115 9 -143 -43 -14 -29 -17 -29
-72 -24 -32 3 -60 8 -62 10 -9 7 143 153 160 153 21 0 29 9 22 26 -6 17 -33
19 -33 1 0 -7 -37 -49 -82 -94 -83 -82 -83 -82 -151 -92 -59 -8 -109 -31 -400
-182 -403 -208 -499 -264 -554 -321 -30 -30 -63 -87 -113 -193 l-70 -150 0
-212 0 -213 34 -14 c18 -8 37 -19 41 -26 4 -7 15 4 29 30 12 22 69 109 127
193 59 83 151 222 205 307 54 85 108 163 119 172 39 34 138 78 175 78 26 0 43
-7 60 -25 31 -33 83 -34 113 -1 19 20 33 24 92 26 39 1 76 2 83 1 28 -2 -4
-25 -93 -67 -80 -38 -101 -44 -158 -44 -62 0 -70 -3 -144 -50 -68 -43 -83 -58
-113 -112 -18 -35 -40 -69 -47 -77 -8 -7 -22 -30 -33 -50 -19 -38 -47 -68 -55
-59 -3 2 11 31 30 62 19 32 35 62 35 66 0 7 42 75 83 135 8 11 55 44 106 74
50 30 91 56 91 58 0 3 -7 12 -16 21 -15 15 -24 12 -113 -34 l-96 -49 -101
-155 c-56 -85 -128 -191 -160 -235 -167 -231 -204 -291 -205 -336 -1 -40 -1
-42 -10 -18 -8 22 -18 27 -57 32 -26 4 -64 9 -84 13 -33 6 -37 4 -41 -17 -2
-13 -3 -6 -1 16 2 25 10 46 23 57 21 16 21 23 21 487 l0 471 -45 58 -45 57 0
121 0 120 -52 75 c-58 84 -72 127 -88 272 -9 79 -17 109 -34 132 -84 110 -249
412 -350 640 l-67 150 -82 66 c-45 37 -134 113 -197 169 -63 56 -131 113 -151
126 -20 14 -76 78 -125 144 -82 111 -89 118 -121 118 -73 0 -111 86 -61 139
58 62 162 -2 138 -85 -7 -28 -2 -38 75 -128 46 -55 103 -113 127 -130 23 -17
96 -77 161 -133 174 -149 255 -213 266 -209 5 1 -7 47 -27 101 -31 81 -40 97
-58 97 -30 0 -74 47 -74 80 0 26 34 73 59 81 9 3 4 24 -16 77 -25 65 -31 72
-55 72 -29 0 -58 31 -58 62 0 28 38 60 67 56 14 -2 35 -16 47 -31 20 -27 20
-29 4 -58 -17 -28 -16 -32 11 -101 24 -58 35 -73 60 -84 36 -15 55 -54 46 -95
-6 -25 2 -34 81 -97 l87 -71 33 27 c38 30 38 23 -8 143 -20 53 -36 80 -54 89
-29 16 -42 56 -25 82 9 15 1 37 -51 138 -39 74 -69 120 -78 120 -24 0 -40 21
-40 50 0 50 51 68 85 29 16 -17 17 -24 7 -51 -11 -29 -8 -38 51 -141 49 -87
67 -111 86 -114 31 -4 51 -21 51 -42 0 -10 41 -40 105 -77 58 -34 105 -57 105
-51 0 5 -17 54 -37 108 -36 94 -39 99 -67 99 -45 0 -86 44 -86 92 0 28 -12 56
-47 110 -26 40 -78 126 -115 192 -39 69 -77 123 -90 130 -27 13 -35 41 -18 61
14 17 29 19 48 6z m442 -6 c8 -10 11 -31 6 -61 -7 -57 -3 -65 107 -194 101
-118 163 -232 148 -272 -11 -29 3 -67 33 -93 16 -13 50 -92 102 -235 57 -153
90 -229 117 -264 22 -31 37 -62 37 -79 0 -26 -3 -24 -62 39 -35 37 -71 80 -81
96 -9 16 -60 138 -113 271 -170 433 -158 408 -257 526 -49 58 -93 116 -98 129
-10 27 -12 135 -2 145 12 12 50 7 63 -8z m889 -21 c12 -15 21 -32 21 -39 0
-21 -40 -65 -59 -65 -30 0 -71 39 -71 67 0 61 71 85 109 37z m-150 5 c25 -9
31 -16 31 -40 0 -19 10 -40 25 -55 14 -14 25 -29 25 -34 0 -23 -103 -266 -116
-273 -8 -4 -14 -21 -14 -36 0 -20 -14 -43 -45 -77 -25 -26 -45 -51 -45 -55 0
-11 -212 -179 -221 -174 -4 3 -15 29 -25 58 -9 28 -19 58 -22 65 -2 7 4 12 16
12 11 0 30 12 42 28 18 21 21 35 16 69 l-5 41 97 86 c62 54 100 82 106 76 28
-28 96 13 96 57 0 14 -13 36 -29 51 -23 22 -30 38 -35 89 -6 55 -4 66 15 93
25 33 39 36 88 19z m-1317 -64 c10 -22 9 -29 -9 -47 -28 -27 -70 -18 -79 17
-8 33 11 55 47 55 22 0 32 -7 41 -25z m128 -81 c0 -8 -4 -12 -10 -9 -5 3 -10
10 -10 16 0 5 5 9 10 9 6 0 10 -7 10 -16z m-341 -8 c13 -16 5 -46 -13 -46 -23
0 -36 22 -25 42 12 22 22 23 38 4z m-135 -82 c22 -21 20 -47 -4 -69 -44 -40
-107 25 -69 71 15 19 54 18 73 -2z m2220 -6 c8 -14 7 -21 -6 -34 -30 -30 -75
9 -48 42 16 18 39 15 54 -8z m-1534 2 c0 -5 -2 -10 -4 -10 -3 0 -8 5 -11 10
-3 6 -1 10 4 10 6 0 11 -4 11 -10z m-423 -56 c8 -21 -13 -42 -28 -27 -13 13
-5 43 11 43 6 0 13 -7 17 -16z m-42 -154 c0 -22 -29 -18 -33 3 -3 14 1 18 15
15 10 -2 18 -10 18 -18z m425 10 c0 -5 -4 -10 -9 -10 -6 0 -13 5 -16 10 -3 6
1 10 9 10 9 0 16 -4 16 -10z m1811 -26 c9 -11 10 -20 2 -32 -13 -22 -43 -22
-56 -1 -24 38 25 68 54 33z m157 -81 c32 -28 35 -56 11 -87 -27 -34 -64 -32
-92 5 -20 28 -17 57 9 84 20 20 47 19 72 -2z m-2118 -9 c0 -9 -5 -14 -12 -12
-18 6 -21 28 -4 28 9 0 16 -7 16 -16z m-939 -55 c12 -12 19 -30 17 -43 -2 -18
21 -51 87 -128 50 -58 106 -117 127 -131 20 -15 106 -81 191 -147 l155 -120
59 -111 c58 -110 60 -112 97 -116 77 -8 139 -62 151 -132 8 -51 -21 -120 -64
-152 l-31 -23 71 -41 c39 -23 75 -47 80 -52 7 -7 18 -3 34 13 30 30 54 30 90
2 25 -19 27 -26 21 -67 -7 -58 16 -91 63 -91 56 0 85 -49 61 -102 -12 -25 18
-168 81 -393 39 -137 46 -150 120 -232 33 -36 65 -75 71 -86 12 -24 -134 95
-163 131 -24 31 -46 106 -106 355 -36 150 -52 197 -63 197 -32 0 -60 30 -60
65 0 19 5 37 10 40 6 4 -1 20 -16 41 -20 26 -34 34 -57 34 -34 0 -67 25 -67
51 0 27 -177 132 -211 125 -43 -8 -101 14 -141 54 -35 35 -38 42 -38 94 0 62
9 87 47 128 l26 27 -55 98 -55 98 -192 150 c-175 137 -198 159 -272 258 -66
87 -86 107 -107 107 -54 0 -81 62 -45 102 21 24 58 23 84 -3z m1194 -28 c3 -5
1 -12 -5 -16 -5 -3 -10 1 -10 9 0 18 6 21 15 7z m1969 -87 c19 -18 21 -45 4
-62 -20 -20 -46 -14 -65 14 -16 26 -16 27 6 45 28 23 35 23 55 3z m-2984 -46
c0 -15 -32 -21 -40 -7 -13 20 9 43 26 28 8 -6 14 -16 14 -21z m170 -34 c0 -8
-5 -12 -10 -9 -6 4 -8 11 -5 16 9 14 15 11 15 -7z m-60 -30 c0 -2 -9 0 -20 6
-11 6 -20 13 -20 16 0 2 9 0 20 -6 11 -6 20 -13 20 -16z m130 -69 c0 -3 -18 4
-40 15 -22 11 -40 23 -40 25 0 3 18 -4 40 -15 22 -11 40 -23 40 -25z m70 -41
c0 -2 -9 0 -20 6 -11 6 -20 13 -20 16 0 2 9 0 20 -6 11 -6 20 -13 20 -16z
m-695 -29 c0 -48 64 -160 291 -510 82 -126 178 -276 212 -332 54 -87 73 -108
125 -144 34 -23 96 -68 138 -100 42 -32 79 -55 82 -52 11 11 49 -10 57 -32 6
-17 26 -29 75 -45 61 -20 68 -21 84 -6 55 50 127 -23 78 -80 -22 -26 -26 -27
-54 -15 -17 7 -35 22 -40 34 -15 31 -135 70 -169 55 -19 -9 -28 -8 -44 7 -11
10 -20 23 -20 30 0 7 -65 55 -144 108 -161 107 -147 91 -305 349 -114 187 -93
170 -264 209 l-98 22 -15 -22 c-21 -29 -77 -29 -98 1 -22 32 -20 64 6 82 34
24 64 19 90 -13 20 -26 38 -33 137 -55 63 -15 116 -25 117 -23 2 2 -42 86 -99
188 -56 102 -117 218 -136 257 -19 40 -40 72 -47 72 -18 0 -26 30 -13 47 7 8
22 13 33 11 17 -2 21 -10 21 -43z m758 -11 c-3 -8 -12 -14 -19 -14 -20 0 -30
30 -13 40 17 11 40 -7 32 -26z m-580 0 c9 -9 -4 -34 -18 -34 -14 0 -27 25 -18
34 4 3 12 6 18 6 6 0 14 -3 18 -6z m1617 -94 c0 -5 -7 -10 -16 -10 -8 0 -12 5
-9 10 3 6 10 10 16 10 5 0 9 -4 9 -10z m1792 -7 c10 -9 18 -27 18 -40 0 -26
-32 -63 -55 -63 -25 0 -55 38 -55 70 0 46 55 67 92 33z m-3334 -9 c33 -23 31
-80 -3 -96 -18 -8 -35 -9 -53 -2 -22 8 -28 16 -30 46 -2 28 2 40 20 52 28 20
38 20 66 0z m-344 -20 c14 -37 -5 -61 -39 -48 -15 6 -21 45 -8 57 12 13 41 7
47 -9z m476 -40 c0 -17 -22 -14 -28 4 -2 7 3 12 12 12 9 0 16 -7 16 -16z m609
-93 c16 -28 -14 -51 -36 -28 -13 13 -14 19 -3 31 17 21 27 20 39 -3z m77 -48
c-10 -10 -19 5 -10 18 6 11 8 11 12 0 2 -7 1 -15 -2 -18z m-1218 -41 c4 -36
-13 -48 -53 -38 -19 5 -25 13 -25 35 0 36 8 43 45 39 26 -3 30 -7 33 -36z
m618 -16 c21 -33 15 -65 -17 -89 -24 -17 -30 -18 -55 -6 -64 32 -48 119 21
119 26 0 39 -6 51 -24z m154 -21 c10 -13 10 -20 1 -39 -10 -17 -10 -71 -4
-224 5 -110 11 -204 15 -207 12 -13 268 -102 268 -94 0 19 42 49 68 49 36 0
65 -30 66 -70 1 -19 6 -30 16 -30 8 -1 26 -7 39 -14 19 -10 31 -11 48 -3 30
14 64 -15 61 -52 -1 -16 11 -45 28 -71 64 -95 196 -321 191 -326 -8 -8 -52 55
-155 218 -69 108 -92 137 -113 142 -17 3 -30 15 -38 34 -15 36 -59 51 -128 45
-45 -5 -52 -3 -71 22 -17 22 -51 37 -154 71 -72 24 -138 50 -147 59 -13 13
-17 50 -19 222 -3 157 -7 212 -18 227 -12 17 -11 22 3 38 20 22 27 22 43 3z
m472 0 c0 -5 -5 -11 -11 -13 -6 -2 -11 4 -11 13 0 9 5 15 11 13 6 -2 11 -8 11
-13z m-1307 -180 c0 -25 -4 -30 -24 -30 -32 0 -49 28 -31 50 7 9 23 15 34 13
16 -2 21 -10 21 -33z m1957 -57 c-15 -15 -26 -4 -18 18 5 13 9 15 18 6 9 -9 9
-15 0 -24z m-1725 -14 c7 -20 -17 -37 -34 -23 -15 13 -6 39 13 39 8 0 17 -7
21 -16z m238 -55 c0 -7 -8 -15 -17 -17 -18 -3 -25 18 -11 32 10 10 28 1 28
-15z m1495 -40 c0 -5 -7 -9 -15 -9 -15 0 -20 12 -9 23 8 8 24 -1 24 -14z
m-1606 -25 c9 -8 16 -23 16 -33 0 -47 334 -311 393 -311 22 0 57 -27 57 -44 0
-6 126 -53 280 -105 325 -108 302 -92 444 -309 46 -70 99 -139 117 -153 19
-14 62 -47 97 -73 110 -84 105 -55 100 -588 -3 -292 -8 -462 -15 -469 -12 -12
-23 305 -23 658 0 280 6 266 -149 383 -80 60 -117 95 -142 136 -99 159 -154
237 -182 258 -32 24 -540 206 -575 206 -24 0 -39 17 -44 49 -2 18 -24 38 -85
75 -46 29 -127 95 -186 153 -58 56 -108 99 -111 96 -13 -13 -56 9 -62 32 -12
47 36 73 70 39z m186 -19 c0 -8 -4 -15 -10 -15 -5 0 -10 7 -10 15 0 8 5 15 10
15 6 0 10 -7 10 -15z m-532 -52 c4 -37 -19 -58 -53 -49 -36 9 -45 54 -16 77
31 25 65 11 69 -28z m168 -171 c44 16 102 -13 129 -65 12 -23 33 -44 50 -52
17 -7 89 -47 160 -90 124 -74 145 -83 484 -196 194 -65 362 -126 373 -136 11
-10 39 -40 62 -68 l41 -50 -50 42 c-27 22 -63 47 -80 56 -16 8 -182 65 -369
126 l-339 112 -160 99 -161 99 -12 -28 c-7 -16 -22 -36 -35 -45 -52 -36 -152
-5 -165 51 -3 15 -7 33 -9 40 -2 6 -25 19 -52 27 -42 14 -43 15 -13 12 19 -3
43 -7 53 -11 11 -5 17 -3 17 6 0 7 8 21 17 31 16 18 14 22 -50 82 -37 35 -67
70 -67 77 0 8 33 -19 73 -59 71 -70 73 -72 103 -60z m-191 -52 c0 -16 -6 -26
-18 -28 -19 -4 -32 20 -23 44 9 25 41 13 41 -16z m103 -291 c-2 -6 -8 -10 -13
-10 -5 0 -11 4 -13 10 -2 6 4 11 13 11 9 0 15 -5 13 -11z m282 -33 c0 -8 -5
-18 -11 -22 -14 -8 -33 11 -25 25 10 16 36 13 36 -3z m450 -86 c0 -5 -4 -10
-10 -10 -5 0 -10 5 -10 10 0 6 5 10 10 10 6 0 10 -4 10 -10z m1000 0 c0 -5 -4
-10 -10 -10 -5 0 -10 5 -10 10 0 6 5 10 10 10 6 0 10 -4 10 -10z m1541 -12
c21 -33 10 -38 -83 -38 l-93 0 -100 -60 c-55 -33 -111 -60 -125 -60 -14 -1
-128 -54 -255 -118 -272 -138 -251 -118 -400 -404 -55 -105 -110 -204 -123
-219 -22 -27 -92 -74 -92 -62 0 3 20 27 44 53 30 32 76 112 150 257 63 124
123 230 147 257 47 53 166 122 634 366 l100 52 94 -5 c62 -4 97 -10 102 -19z
m-3174 -20 c12 -12 25 -35 29 -52 5 -29 11 -32 79 -52 74 -20 74 -20 94 -1 41
42 121 13 121 -43 0 -25 5 -28 127 -63 97 -28 134 -44 157 -66 17 -16 70 -49
119 -72 48 -23 87 -45 87 -49 0 -10 6 -12 208 -81 144 -48 177 -56 192 -47 16
10 23 9 42 -9 33 -30 73 -37 102 -17 28 18 61 7 71 -25 3 -12 23 -23 52 -31
26 -8 60 -28 79 -47 l34 -34 0 -107 c0 -113 -6 -155 -21 -146 -5 3 -9 56 -9
119 0 107 -2 115 -25 143 -28 34 -107 66 -123 50 -17 -17 -66 -5 -77 19 -11
25 -59 39 -95 28 -14 -4 -28 -1 -38 9 -19 16 -388 146 -416 146 -9 0 -19 7
-23 16 -3 8 -36 30 -74 49 l-68 35 -21 -36 c-21 -33 -21 -36 -5 -54 10 -11 20
-34 24 -52 6 -31 11 -35 101 -65 52 -18 169 -55 260 -83 l165 -52 188 -191
c208 -213 269 -284 170 -200 -33 29 -128 124 -211 211 l-150 158 -254 82
c-139 45 -259 82 -265 82 -6 0 -14 -7 -17 -15 -13 -35 262 -200 297 -178 4 3
16 -2 25 -10 9 -8 66 -32 126 -53 l108 -39 137 -141 c75 -77 166 -174 204
-216 65 -73 67 -77 67 -129 0 -39 -3 -50 -10 -39 -5 8 -10 31 -10 51 0 32 -16
53 -161 210 -228 246 -217 237 -355 288 -65 23 -147 54 -181 67 -34 13 -66 24
-71 24 -6 0 -52 31 -103 69 -86 63 -95 68 -114 55 -24 -17 -69 -18 -97 -3 -18
10 -25 6 -54 -27 -18 -22 -33 -35 -34 -30 0 4 12 22 26 39 18 21 23 36 19 51
-4 12 -10 40 -12 63 -3 26 -11 44 -21 48 -36 15 -276 95 -277 92 -1 -1 -8 -12
-14 -24 -6 -13 -19 -23 -29 -22 -14 0 -14 2 2 8 14 5 16 10 8 15 -7 4 -19 23
-27 43 -15 35 -16 36 -36 18 -19 -18 -19 -18 -13 -1 15 39 67 37 104 -5 8 -9
81 -39 161 -65 l146 -48 22 21 c26 24 64 34 102 26 21 -4 31 1 49 27 l23 33
-34 31 c-25 23 -65 40 -147 65 -111 34 -114 34 -143 17 -48 -28 -109 -2 -109
48 0 18 -12 25 -79 46 l-78 25 -16 -27 c-9 -16 -22 -28 -29 -28 -10 0 -10 2 1
9 8 5 10 14 6 21 -6 9 -4 11 6 5 8 -5 11 -5 7 0 -8 9 -24 18 -86 53 -31 16
-40 26 -35 39 12 30 -17 3 -32 -30 l-14 -32 6 30 c15 79 102 108 160 53z m753
2 c0 -5 -2 -10 -4 -10 -3 0 -8 5 -11 10 -3 6 -1 10 4 10 6 0 11 -4 11 -10z
m68 -83 c2 -10 -3 -17 -12 -17 -18 0 -29 16 -21 31 9 14 29 6 33 -14z m227 -7
c10 -11 24 -20 31 -20 8 0 38 -11 67 -24 58 -25 67 -35 218 -231 50 -66 119
-148 153 -183 l61 -64 -50 29 c-38 23 -76 63 -163 174 -174 223 -185 235 -244
257 l-53 20 -22 -24 c-35 -38 -84 -26 -96 23 -12 53 60 85 98 43z m595 -10 c0
-5 -4 -10 -10 -10 -5 0 -10 5 -10 10 0 6 5 10 10 10 6 0 10 -4 10 -10z m-515
-80 c3 -5 1 -10 -4 -10 -6 0 -11 5 -11 10 0 6 2 10 4 10 3 0 8 -4 11 -10z
m1553 -109 c-23 -8 -267 -177 -314 -216 -32 -28 -77 -84 -119 -152 -166 -263
-185 -288 -242 -335 -98 -79 -103 -85 -104 -131 0 -23 -4 -51 -8 -62 -11 -26
-19 88 -9 115 4 10 42 49 86 85 67 57 90 86 158 196 170 279 174 282 337 405
81 60 162 125 180 142 l32 33 6 -38 c4 -21 3 -40 -3 -42z m814 -5 c14 -33 4
-56 -25 -56 -27 0 -47 17 -47 40 0 42 54 54 72 16z m-2318 -19 c28 -20 18 -61
-16 -65 -37 -4 -57 31 -32 59 20 23 25 23 48 6z m-204 -27 c0 -5 -5 -12 -11
-16 -12 -7 -31 15 -23 28 6 9 34 -1 34 -12z m-835 -83 c11 -8 14 -16 8 -20 -6
-4 -18 2 -28 13 -21 23 -8 27 20 7z m3280 -11 c30 -46 -19 -87 -58 -47 -18 17
-19 24 -9 46 15 32 47 33 67 1z m-1850 -26 c3 -5 1 -10 -4 -10 -6 0 -11 5 -11
10 0 6 2 10 4 10 3 0 8 -4 11 -10z m470 -20 c3 -5 1 -10 -4 -10 -6 0 -11 5
-11 10 0 6 2 10 4 10 3 0 8 -4 11 -10z m1246 -80 c27 -15 26 -66 -2 -80 -16
-9 -26 -8 -45 5 -28 18 -31 41 -7 67 19 21 27 22 54 8z m-81 -41 c0 -16 -19
-29 -84 -60 -72 -34 -88 -38 -112 -29 -38 15 -76 4 -109 -30 -25 -26 -32 -28
-74 -23 -62 7 -134 -24 -192 -83 -24 -24 -52 -44 -62 -44 -15 0 -5 15 39 61
33 33 70 67 84 74 40 20 242 95 259 95 8 0 22 7 31 15 17 16 129 42 188 44 26
1 32 -3 32 -20z m-2838 -46 c32 -29 13 -113 -26 -113 -6 0 -5 4 3 9 14 9 24
52 11 48 -3 -1 -19 11 -34 28 -27 29 -28 29 -42 10 -8 -10 -14 -14 -14 -8 0
39 69 56 102 26z m1148 -57 c0 -3 -4 -8 -10 -11 -5 -3 -10 -1 -10 4 0 6 5 11
10 11 6 0 10 -2 10 -4z m-963 -67 c31 25 75 27 113 5 28 -17 60 -62 60 -86 0
-8 80 -38 228 -85 125 -40 236 -74 247 -75 11 -2 21 -12 23 -23 2 -11 53 -70
113 -131 111 -113 120 -130 99 -179 -7 -16 -9 -12 -9 18 -1 35 -11 50 -108
153 -60 63 -112 114 -117 114 -6 0 -19 9 -30 19 -12 10 -117 50 -234 88 -186
61 -214 68 -222 54 -6 -10 -10 -11 -10 -4 0 7 -3 12 -7 11 -5 -1 -27 10 -50
26 -23 15 -59 34 -80 41 -34 12 -40 12 -52 -3 -12 -15 -13 -15 -7 4 5 17 -4
26 -54 54 -33 19 -60 38 -60 43 0 5 29 -8 65 -28 l65 -36 27 20z m2623 36 c19
-23 3 -57 -27 -53 -34 4 -51 31 -34 52 17 20 45 21 61 1z m-1220 -55 c0 -5 -4
-10 -10 -10 -5 0 -10 5 -10 10 0 6 5 10 10 10 6 0 10 -4 10 -10z m920 1 c0 -9
-186 -95 -337 -156 -77 -31 -103 -48 -173 -112 -77 -72 -192 -209 -220 -263
-7 -14 -15 -20 -17 -13 -16 48 224 331 325 382 20 10 91 41 157 69 66 28 145
62 175 76 56 26 90 33 90 17z m148 -98 c-3 -19 -48 -29 -76 -18 -14 6 -11 10
13 21 43 19 67 18 63 -3z m-310 -41 c8 -6 1 -13 -23 -25 -20 -9 -38 -17 -40
-17 -8 0 -6 36 2 43 9 9 45 8 61 -1z m169 -58 c3 -8 -1 -22 -8 -30 -12 -11
-20 -12 -47 -2 -43 16 -89 3 -237 -66 -92 -44 -125 -65 -165 -108 -27 -29 -49
-59 -50 -66 0 -17 -17 -6 -31 20 -9 18 -9 20 4 15 11 -4 31 12 64 50 41 49 64
64 171 116 71 33 152 64 190 72 90 18 102 18 109 -1z m-233 -131 c-5 -16 -4
-16 10 1 17 21 36 14 36 -13 0 -26 -25 -44 -50 -36 -28 9 -27 65 1 65 5 0 6
-8 3 -17z m-1514 -133 c0 -10 -3 -21 -7 -23 -5 -3 -8 8 -8 23 0 15 3 26 8 23
4 -2 7 -13 7 -23z m1189 27 c-2 -1 -15 -11 -28 -22 l-24 -20 12 23 c6 12 19
22 28 22 9 0 14 -1 12 -3z"/>
<path d="M3356 5009 c-64 -51 3 -156 76 -118 31 16 38 28 38 67 0 64 -62 92
-114 51z"/>
<path d="M2713 4328 c-20 -19 -19 -20 16 -118 32 -88 39 -100 60 -100 13 0 38
-15 58 -35 31 -31 35 -40 31 -80 l-3 -46 78 -51 c72 -48 79 -50 95 -35 15 16
14 23 -6 109 -29 120 -54 175 -87 190 -16 7 -28 23 -32 39 -4 22 -26 41 -98
87 -92 59 -93 60 -112 40z m237 -273 c0 -8 -4 -15 -10 -15 -5 0 -10 7 -10 15
0 8 5 15 10 15 6 0 10 -7 10 -15z"/>
<path d="M3871 4304 c0 -11 3 -14 6 -6 3 7 2 16 -1 19 -3 4 -6 -2 -5 -13z"/>
<path d="M3832 4231 c-7 -4 -14 -20 -16 -35 -1 -14 -14 -39 -27 -54 l-24 -27
26 23 c21 18 31 21 52 13 20 -8 28 -6 41 8 40 44 -3 103 -52 72z"/>
<path d="M4542 4168 c-28 -28 -3 -88 37 -88 23 0 51 31 51 56 0 27 -19 44 -50
44 -14 0 -31 -5 -38 -12z"/>
<path d="M3951 4131 c-84 -79 15 -220 117 -167 42 22 62 53 62 99 0 89 -111
131 -179 68z"/>
<path d="M3590 4075 c0 -8 5 -15 10 -15 6 0 10 7 10 15 0 8 -4 15 -10 15 -5 0
-10 -7 -10 -15z"/>
<path d="M4495 4045 c-5 -2 -22 -6 -37 -9 -20 -5 -28 -13 -28 -29 0 -18 -30
-40 -151 -114 -94 -58 -162 -93 -179 -93 -34 0 -60 -28 -60 -66 0 -22 -13 -41
-57 -82 l-58 -54 65 55 c52 43 68 52 81 44 28 -18 67 15 71 60 3 36 7 39 148
125 82 50 152 87 162 84 25 -6 45 15 50 52 3 17 4 32 4 31 -1 0 -5 -2 -11 -4z"/>
<path d="M3822 3968 c-32 -18 -58 -42 -68 -61 -9 -18 -41 -57 -71 -88 l-55
-57 -24 -117 c-25 -128 -46 -164 -140 -242 -34 -29 -50 -53 -71 -108 -20 -54
-41 -85 -89 -135 l-62 -65 -4 -135 -3 -135 -62 -98 -63 -97 0 -119 0 -119 45
-58 c26 -33 45 -68 45 -83 l0 -26 19 24 c16 20 20 46 23 141 3 109 5 119 31
153 l27 36 0 176 0 177 37 86 c33 78 46 96 129 179 125 122 180 214 240 398
59 184 62 188 219 319 l30 24 -29 31 c-17 17 -35 30 -40 30 -6 -1 -35 -15 -64
-31z m-615 -1350 c-3 -8 -6 -5 -6 6 -1 11 2 17 5 13 3 -3 4 -12 1 -19z m-17
-248 c0 -5 -2 -10 -4 -10 -3 0 -8 5 -11 10 -3 6 -1 10 4 10 6 0 11 -4 11 -10z"/>
<path d="M4553 3829 c-4 -15 -29 -32 -76 -54 l-69 -32 -24 23 c-50 50 -112 16
-100 -55 6 -37 3 -43 -34 -77 -68 -63 -78 -68 -99 -50 -45 41 -127 2 -119 -55
4 -27 -2 -34 -56 -73 -34 -24 -85 -65 -115 -92 -49 -44 -57 -48 -97 -45 -37 2
-49 -2 -74 -27 -39 -40 -41 -88 -4 -131 14 -17 32 -31 40 -31 35 0 -12 -86
-55 -101 -37 -13 -46 -35 -26 -66 12 -18 19 -21 34 -13 22 11 33 34 25 54 -11
28 46 106 91 127 42 20 65 52 65 90 0 11 6 22 13 24 54 19 69 26 65 30 -3 3
-21 -1 -40 -9 -34 -15 -36 -14 -48 9 -7 14 -18 25 -23 25 -17 0 16 32 115 111
96 76 98 78 125 64 45 -24 96 3 108 55 7 32 129 145 146 135 17 -11 69 16 75
39 6 25 138 96 178 96 24 0 41 24 30 41 -11 18 -46 9 -51 -12z"/>
<path d="M2563 3830 c3 -8 30 -77 60 -152 66 -162 150 -319 260 -482 l81 -119
21 -126 c15 -93 28 -138 48 -171 l27 -45 0 226 0 226 -61 105 c-55 96 -64 107
-95 112 -42 8 -64 39 -64 90 0 59 -38 113 -128 181 -48 36 -94 82 -117 115
-20 30 -35 48 -32 40z m402 -639 c3 -5 1 -12 -5 -16 -5 -3 -10 1 -10 9 0 18 6
21 15 7z"/>
<path d="M4738 3824 c-5 -5 -28 -11 -50 -13 -13 -2 -9 -21 5 -21 12 0 68 39
56 40 -3 0 -8 -3 -11 -6z"/>
<path d="M4717 3639 c-9 -12 -69 -50 -133 -84 l-118 -62 -32 33 c-26 28 -39
34 -73 34 -59 0 -91 -33 -91 -94 0 -47 12 -66 59 -90 24 -13 32 -12 67 3 36
17 64 52 64 84 0 16 257 150 271 142 5 -4 18 0 27 8 9 8 49 22 87 31 51 11 56
14 20 9 -64 -9 -96 -8 -116 1 -12 5 -22 0 -32 -15z"/>
<path d="M4924 3598 l-19 -23 23 19 c21 18 27 26 19 26 -2 0 -12 -10 -23 -22z"/>
<path d="M4845 3530 c-10 -11 -28 -20 -41 -20 -30 0 -51 -35 -33 -56 14 -17
33 -18 60 -4 16 9 17 14 8 31 -9 17 -7 25 12 45 12 13 20 24 17 24 -3 0 -13
-9 -23 -20z"/>
<path d="M4204 3362 c-17 -9 -47 -26 -67 -36 l-36 -19 -21 26 c-50 63 -143 8
-117 -70 4 -11 14 -24 22 -27 8 -3 15 -11 15 -19 0 -14 -240 -293 -271 -315
-11 -7 -33 -12 -49 -10 -26 2 -44 -14 -170 -145 -77 -82 -140 -154 -139 -160
4 -29 -3 -47 -31 -82 -26 -33 -30 -46 -30 -99 l0 -61 41 47 c22 26 73 70 113
98 60 41 76 59 89 93 8 23 23 65 32 92 11 30 32 62 53 80 55 47 79 74 150 167
125 163 235 293 251 296 24 6 61 43 61 62 0 15 57 50 83 50 7 0 23 12 36 25
27 29 26 30 -15 7z m-674 -662 c0 -5 -5 -10 -11 -10 -5 0 -7 5 -4 10 3 6 8 10
11 10 2 0 4 -4 4 -10z m-30 -110 c0 -5 -4 -10 -10 -10 -5 0 -10 5 -10 10 0 6
5 10 10 10 6 0 10 -4 10 -10z"/>
<path d="M4610 3265 c0 -8 5 -15 10 -15 6 0 10 7 10 15 0 8 -4 15 -10 15 -5 0
-10 -7 -10 -15z"/>
<path d="M3532 3153 c-79 -73 -97 -96 -127 -160 -34 -73 -35 -80 -35 -195 l0
-120 39 49 c21 26 51 59 66 73 15 14 47 51 71 84 35 46 44 66 44 100 0 44 9
64 54 120 27 34 28 37 11 50 -10 7 -20 29 -24 49 l-6 36 -93 -86z m-32 -253
c0 -5 -2 -10 -4 -10 -3 0 -8 5 -11 10 -3 6 -1 10 4 10 6 0 11 -4 11 -10z"/>
<path d="M4874 3196 c11 -9 24 -16 30 -16 12 0 7 5 -24 19 -24 11 -24 11 -6
-3z"/>
<path d="M3900 3180 c0 -5 5 -10 10 -10 6 0 10 5 10 10 0 6 -4 10 -10 10 -5 0
-10 -4 -10 -10z"/>
<path d="M4670 3169 c-17 -13 -18 -17 -5 -10 33 17 51 31 40 31 -5 0 -21 -10
-35 -21z"/>
<path d="M4930 3170 c8 -5 20 -10 25 -10 6 0 3 5 -5 10 -8 5 -19 10 -25 10 -5
0 -3 -5 5 -10z"/>
<path d="M4970 3156 c0 -2 7 -7 16 -10 8 -3 12 -2 9 4 -6 10 -25 14 -25 6z"/>
<path d="M4533 3127 c-15 -32 -225 -137 -249 -124 -26 15 -64 -8 -64 -38 0
-14 5 -25 10 -25 17 0 11 -29 -19 -89 -21 -41 -41 -65 -67 -81 -21 -12 -55
-41 -76 -65 -36 -41 -39 -42 -80 -35 -47 9 -93 -5 -118 -34 -7 -10 -76 -49
-151 -86 -255 -128 -293 -155 -407 -285 l-102 -118 0 -111 0 -111 34 82 c42
105 46 109 141 184 105 83 163 117 437 261 l228 120 37 61 c20 34 59 85 85
113 26 28 57 73 69 100 50 114 66 131 181 189 61 31 110 50 113 45 16 -26 75
-3 75 28 0 8 7 20 15 26 12 9 5 12 -33 14 -42 2 -50 -1 -59 -21z"/>
<path d="M4160 3055 l-54 -55 -29 28 c-22 21 -38 27 -73 27 -39 0 -50 -5 -75
-33 -33 -37 -39 -93 -13 -130 8 -12 13 -26 9 -32 -3 -5 -43 -31 -88 -59 -46
-27 -91 -59 -101 -70 -11 -12 -31 -21 -46 -21 -35 0 -50 -17 -50 -58 0 -20
-11 -50 -28 -75 -37 -54 -44 -67 -39 -67 3 0 24 25 47 55 23 30 46 52 51 49
10 -6 51 14 61 30 4 6 5 20 2 32 -6 24 21 48 142 128 65 43 74 46 112 40 78
-12 144 54 125 125 -5 18 6 35 53 82 32 32 56 59 53 59 -2 0 -29 -25 -59 -55z"/>
<path d="M4905 3100 c3 -5 8 -10 11 -10 2 0 4 5 4 10 0 6 -5 10 -11 10 -5 0
-7 -4 -4 -10z"/>
<path d="M5004 3090 c-5 -5 -33 -22 -63 -39 l-54 -29 -29 29 c-21 20 -39 29
-62 29 -37 0 -81 -30 -91 -60 -6 -18 -15 -20 -81 -20 -58 0 -89 -6 -137 -26
-79 -33 -85 -39 -169 -156 -38 -54 -82 -105 -98 -113 -24 -13 -70 -63 -70 -78
0 -2 22 7 50 22 42 22 62 44 134 150 81 120 86 124 147 152 53 23 78 28 142
29 54 0 77 -4 75 -11 -2 -6 -52 -33 -112 -60 -59 -27 -115 -54 -124 -61 -23
-20 -122 -171 -116 -177 4 -4 15 5 25 19 115 155 108 149 221 202 l107 51 32
-28 c27 -22 39 -26 68 -21 43 6 91 55 91 90 0 20 14 32 71 64 39 22 67 42 62
45 -6 4 -14 2 -19 -3z"/>
<path d="M3760 3025 c0 -8 5 -15 10 -15 6 0 10 7 10 15 0 8 -4 15 -10 15 -5 0
-10 -7 -10 -15z"/>
<path d="M3960 2785 c-9 -11 -10 -18 -1 -29 6 -7 8 -21 5 -30 -4 -11 6 -5 26
13 28 25 31 32 20 45 -16 20 -34 20 -50 1z"/>
<path d="M4695 2790 c4 -6 11 -8 16 -5 14 9 11 15 -7 15 -8 0 -12 -5 -9 -10z"/>
<path d="M4186 2171 c-4 -5 -2 -12 3 -15 5 -4 12 -2 15 3 4 5 2 12 -3 15 -5 4
-12 2 -15 -3z"/>
<path d="M4506 2053 c-11 -11 -6 -23 9 -23 8 0 15 4 15 9 0 13 -16 22 -24 14z"/>
<path d="M1317 2884 c5 -13 33 -27 40 -21 9 10 -11 35 -27 34 -10 0 -16 -7
-13 -13z"/>
<path d="M1829 2131 c-47 -47 -31 -125 30 -150 77 -32 155 54 117 128 -31 60
-99 70 -147 22z"/>
</g>
</svg>
